<svg width="1200" height="207" viewBox="0 0 1200 207" fill="none" xmlns="http://www.w3.org/2000/svg">
<path d="M180 82L92.21 119.38C84.93 122.46 78.815 124.005 73.87 124.005C68.27 124.005 64.205 122.045 61.685 118.12C60.1 115.6 59.635 112.405 60.285 108.53C60.935 104.655 62.665 100.53 65.465 96.14C67.8 92.59 71.625 87.925 76.95 82.14C75.1439 84.9833 73.8194 88.1053 73.03 91.38C71.63 97.355 72.89 101.74 76.81 104.54C78.675 105.845 81.24 106.5 84.51 106.5C87.12 106.5 90.06 106.08 93.33 105.24L180 82Z" fill="#222F3E"/>
<g clip-path="url(#clip0_401_485)">
<path d="M359.68 132.76C359.68 129.54 362.265 126.96 365.49 126.96C368.71 126.96 371.29 129.54 371.29 132.76C371.293 133.523 371.144 134.278 370.854 134.983C370.563 135.689 370.136 136.329 369.597 136.869C369.058 137.408 368.418 137.836 367.713 138.127C367.008 138.418 366.253 138.567 365.49 138.565C364.727 138.568 363.971 138.421 363.265 138.13C362.559 137.84 361.918 137.413 361.378 136.874C360.838 136.335 360.41 135.694 360.118 134.989C359.827 134.284 359.678 133.528 359.68 132.765V132.76ZM383.3 132.765C383.3 129.54 385.885 126.955 389.105 126.955C392.325 126.955 394.91 129.54 394.91 132.76C394.91 135.98 392.325 138.565 389.11 138.565C388.347 138.568 387.591 138.421 386.885 138.13C386.179 137.84 385.538 137.413 384.998 136.874C384.458 136.335 384.03 135.694 383.738 134.989C383.447 134.284 383.298 133.528 383.3 132.765V132.765ZM328.55 132.765C328.55 129.54 331.135 126.955 334.355 126.955C337.575 126.955 340.155 129.54 340.155 132.76C340.155 135.98 337.575 138.565 334.355 138.565C333.592 138.568 332.837 138.419 332.132 138.129C331.426 137.838 330.786 137.411 330.246 136.872C329.707 136.333 329.279 135.693 328.988 134.988C328.697 134.283 328.548 133.528 328.55 132.765V132.765ZM304.93 132.765C304.93 129.54 307.515 126.955 310.735 126.955C313.955 126.955 316.54 129.54 316.54 132.76C316.543 133.523 316.394 134.279 316.104 134.985C315.813 135.69 315.385 136.331 314.846 136.871C314.306 137.41 313.665 137.838 312.96 138.128C312.254 138.419 311.498 138.568 310.735 138.565C309.973 138.567 309.218 138.418 308.513 138.128C307.809 137.837 307.168 137.41 306.629 136.871C306.09 136.332 305.663 135.691 305.372 134.987C305.082 134.282 304.933 133.527 304.935 132.765H304.93ZM352.685 122.505H347.635V142.82H352.685V122.505ZM316.5 142.82H321.55V122.505H316.5V124.135C314.74 122.91 312.645 122.257 310.5 122.265C304.69 122.265 300 126.955 300 132.765C300 138.605 304.69 143.26 310.5 143.26C312.725 143.26 314.79 142.585 316.5 141.39V142.82V142.82ZM394.87 142.82H399.92V122.505H394.87V124.135C393.11 122.91 391.015 122.257 388.87 122.265C383.06 122.265 378.37 126.955 378.37 132.765C378.365 134.145 378.634 135.512 379.16 136.788C379.686 138.064 380.459 139.223 381.435 140.198C382.411 141.174 383.571 141.946 384.847 142.472C386.123 142.997 387.49 143.265 388.87 143.26C391.095 143.26 393.16 142.585 394.87 141.39V142.82V142.82ZM401.79 136.22C401.95 140.32 405.45 143.22 411.29 143.22C416.065 143.22 420 141.15 420 136.58C420 133.4 418.21 131.53 414.075 130.73L410.855 130.1C408.785 129.7 407.355 129.3 407.355 128.07C407.355 126.72 408.745 126.12 410.495 126.12C413.045 126.12 414.075 127.395 414.155 128.905H419.245C418.965 124.93 415.785 122.265 410.655 122.265C405.37 122.265 402.225 125.165 402.225 128.945C402.225 133.555 405.965 134.31 409.185 134.91L411.85 135.385C413.76 135.745 414.595 136.3 414.595 137.415C414.595 138.41 413.64 139.4 411.37 139.4C408.07 139.4 407 137.69 406.96 136.22H401.79V136.22ZM340.12 115.585V124.135C338.36 122.91 336.265 122.257 334.12 122.265C328.31 122.265 323.62 126.955 323.62 132.765C323.62 138.605 328.31 143.26 334.12 143.26C336.34 143.26 338.41 142.585 340.12 141.39V142.82H345.17V115.585H340.12V115.585ZM371.25 115.585V124.135C369.49 122.91 367.395 122.257 365.25 122.265C359.445 122.265 354.75 126.955 354.75 132.765C354.745 134.145 355.014 135.512 355.54 136.788C356.066 138.064 356.839 139.223 357.815 140.198C358.791 141.174 359.951 141.946 361.227 142.472C362.503 142.997 363.87 143.265 365.25 143.26C367.475 143.26 369.54 142.585 371.25 141.39V142.82H376.3V115.585H371.25V115.585ZM313.12 109.585L316.54 115.585H340.12L330.775 99.44L313.125 109.58L313.12 109.585ZM352.685 120.635V115.585H371.25L351.45 81.31L333.755 91.45L347.635 115.585V120.635H352.685V120.635ZM378.77 115.585H402.385L371.85 62.74L354.195 72.92L378.77 115.585V115.585Z" fill="#222F3E"/>
</g>
<path d="M607.75 53.97V53.595C607.75 51.845 608.315 50.28 609.44 48.905C610.565 47.53 612 46.845 613.75 46.845C615.5 46.845 617.065 47.405 618.44 48.53C619.815 49.655 620.565 51.155 620.69 53.03C620.815 54.905 620.25 56.47 619 57.72C617.75 58.97 616.25 59.595 614.5 59.595L613.375 59.97L613.75 60.53L613.375 62.595L612.625 68.595C612.875 68.845 613 69.095 613 69.345L612.25 73.095C612 73.595 611.75 73.97 611.5 74.22L611.125 75.72C610.47 78.3713 609.72 80.9981 608.875 83.595V84.345C608.625 85.595 608.44 86.595 608.315 87.345C608.19 88.095 607.75 89.345 607 91.095C606.5 92.095 606.5 93.72 607 95.97L607.375 96.345C607.375 97.095 607.69 97.97 608.315 98.97C608.94 99.97 609.25 100.845 609.25 101.595C609.5 106.595 609.125 110.845 608.125 114.345L608.875 116.595C611.875 118.095 612.75 119.72 611.5 121.47L613.375 122.22C616.375 123.72 618.5 125.03 619.75 126.155C621 127.28 622.25 128.47 623.5 129.72C624.5 129.97 625.25 130.345 625.75 130.845L626.875 131.22C632.125 134.72 637.375 138.97 642.625 143.97L644.125 145.095V145.47L643.75 146.22L644.875 146.97H645.25C646 147.47 646.5 147.72 646.75 147.72H647.125C647.375 147.72 647.625 147.595 647.875 147.345L648.625 146.97C649.125 146.47 649.625 146.095 650.125 145.845H651.625C651.875 145.845 651.875 145.97 651.625 146.22L650.125 146.97L648.25 149.22H650.875L653.5 149.595C654.25 149.345 654.875 149.095 655.375 148.845L657.25 147.72C658 147.47 658.75 147.72 659.5 148.47H659.875C660.125 148.72 660 149.095 659.5 149.595L655 153.72C653.75 154.72 652.625 155.345 651.625 155.595L646.75 158.97C646.5 159.22 646.25 159.22 646 158.97L644.875 157.47L644.125 155.97L643.185 154.655L642.06 153.155L641.125 152.03L640.375 151.095L638.875 149.97C638.375 149.97 637.875 149.845 637.375 149.595L632.5 145.845C631.75 145.845 630.875 145.47 629.875 144.72C626.125 141.47 623.625 139.47 622.375 138.72L620.125 137.22L615.625 136.47C614.125 136.22 612.125 135.47 609.625 134.22L606.625 132.72C604.625 131.72 603.25 131.22 602.5 131.22L601 130.47C600 130.22 599.25 129.97 598.75 129.72L598 128.97C597.5 128.97 597 129.095 596.5 129.345L589 133.095L579.625 137.22C577.125 139.22 574.75 140.845 572.5 142.095L568.375 143.97L562 148.47C561.5 148.97 561 148.97 560.5 148.47L559.75 149.22C559 149.47 558.5 149.595 558.25 149.595L556.75 150.345V151.095H556L555.25 152.22C554.75 153.22 554.25 153.78 553.75 153.905C553.25 154.03 552.94 154.22 552.815 154.47C552.72 154.675 552.593 154.864 552.44 155.03L551.69 155.78L550.565 156.53L548.875 156.345L546.625 156.72L545.125 157.095C543.875 157.345 542.875 157.155 542.125 156.53C541.375 155.905 540.75 154.97 540.25 153.72C539.75 152.97 540 152.345 541 151.845L541.375 151.47C541.625 151.22 542 151.095 542.5 151.095H544.75L547.75 149.97L549.25 149.595C549.25 149.095 549.375 148.72 549.625 148.47C549.875 148.22 550.25 148.095 550.75 148.095V147.72C550.509 147.256 550.381 146.742 550.375 146.22C550.125 145.72 550.06 145.345 550.19 145.095C550.315 144.845 550.44 144.72 550.565 144.72H550.75L551.125 145.845C551.375 147.095 551.75 147.47 552.25 146.97L552.625 146.22C552.875 145.72 553.25 145.47 553.75 145.47L554.5 146.22L555.25 145.47L554.875 145.095C554.875 144.845 555 144.72 555.25 144.72L556.75 143.22C558 141.72 559.5 140.345 561.25 139.095C564.75 136.345 568.5 134.22 572.5 132.72C573.75 131.47 575.125 130.845 576.625 130.845C577.625 129.095 579.125 127.22 581.125 125.22C582.875 123.97 584.125 123.095 584.875 122.595C585.375 121.595 586 121.095 586.75 121.095H587.125L587.875 120.345C588.375 120.095 588.75 119.845 589 119.595V117.72C589 116.47 589.125 115.47 589.375 114.72C589.625 113.97 590.25 113.595 591.25 113.595L592.75 112.095C592.25 111.095 592 109.97 592 108.72H591.625C591.125 107.97 590.875 107.22 590.875 106.47C590.125 105.22 589.625 104.22 589.375 103.47H588.25C588 104.22 587.375 104.72 586.375 104.97L586 105.72C585 107.47 584.125 108.78 583.375 109.655C582.625 110.53 581.25 111.595 579.25 112.845C578 114.095 577.125 115.47 576.625 116.97C576.375 117.72 576.375 118.47 576.625 119.22L576.25 119.97H576.625C576.625 120.47 576.75 120.72 577 120.72H577.375C577.875 120.97 578.125 121.28 578.125 121.655C578.125 122.03 577.75 122.155 577 122.03C576.374 121.961 575.785 121.699 575.315 121.28C574.94 120.905 574.625 120.72 574.375 120.72L573.25 121.845C572.75 122.595 572.25 122.905 571.75 122.78C571.25 122.655 571.125 122.47 571.375 122.22L571.75 121.845C572 121.345 572 121.095 571.75 121.095L568.75 121.845C568.5 122.095 568.19 122.095 567.815 121.845C567.44 121.595 567.5 121.345 568 121.095L569.875 120.345C569.875 120.095 569.75 119.97 569.5 119.97C568.5 120.47 567.5 120.595 566.5 120.345L564.625 119.97L564.25 119.595C564.25 119.345 564.375 119.22 564.625 119.22C565.625 119.47 566.875 119.345 568.375 118.845L571 117.72L574 114.345L574.375 113.595C575.375 111.595 576.44 109.78 577.565 108.155C578.555 106.678 579.754 105.353 581.125 104.22L581.5 102.72C582 101.72 582.5 100.845 583 100.095C583.5 99.345 584.125 98.345 584.875 97.095L586 95.595C587 94.095 588.125 93.345 589.375 93.345L590.5 92.22C590.75 91.97 590.875 91.595 590.875 91.095L591.625 90.345L591.25 89.97C589.75 88.72 589 87.595 589 86.595C588.75 84.845 589.315 83.345 590.69 82.095C592.065 80.845 593.44 80.28 594.815 80.405C596.19 80.53 597.25 80.97 598 81.72L598.75 82.47C599 82.47 599.125 82.595 599.125 82.845L600.625 83.595V84.72C601.125 85.22 601.375 85.595 601.375 85.845C601.875 85.095 602.625 84.22 603.625 83.22L605.5 77.22C605.5 76.22 605.75 75.22 606.25 74.22L607 73.095V72.345L608.125 67.845H608.875L610 63.345C610.251 62.488 610.251 61.577 610 60.72L608.5 56.97L607.75 53.97V53.97Z" fill="#222F3E"/>
<g clip-path="url(#clip1_401_485)">
<path d="M899.225 58.04C897.14 55.375 893.495 57.51 891.89 58.44C880.47 65.17 878.785 77.02 874.805 83.825C871.675 89.275 866.545 93.275 861.905 93.585C858.475 93.83 854.755 93.165 851.065 91.56C842.03 87.655 837.165 82.6 835.98 81.71C833.545 79.86 814.83 61.635 799.58 60.89C799.58 60.89 797.72 57.14 797.255 57.075C796.145 56.95 795.005 59.33 794.175 59.58C793.425 59.845 792.11 57.02 791.35 57.145C790.585 57.245 789.84 60.075 788.35 61.53C787.25 62.595 785.92 62.53 785.165 63.845C784.905 64.325 784.995 65.17 784.7 65.945C784.065 67.545 781.945 67.715 781.925 69.43C781.925 71.335 783.71 71.7 785.27 73.03C786.51 74.09 786.595 74.84 788.04 75.335C789.33 75.775 791.2 74.4 792.86 74.895C794.245 75.3 795.575 75.595 795.87 77.01C796.14 78.29 795.87 80.3 794.17 80.075C793.61 80 791.18 79.205 788.18 79.525C784.555 79.91 780.415 81.07 780.01 85.075C779.805 87.31 782.58 89.925 785.285 89.405C787.14 89.05 786.265 86.875 787.28 85.825C788.615 84.475 796.14 90.545 803.14 90.545C806.105 90.545 808.295 89.795 810.475 87.52C810.675 87.375 810.94 87.01 811.25 86.97C811.597 87.0602 811.927 87.209 812.225 87.41C817.88 91.895 822.145 100.91 842.875 101.015C845.785 101.05 849.125 102.41 851.855 104.9C854.255 107.065 855.675 110.525 857.04 114.025C859.13 119.29 862.845 124.37 868.5 130.04C868.8 130.38 873.45 133.94 873.8 134.205C873.86 134.255 874.22 135.04 874.065 135.48C873.965 138.93 873.45 148.83 880.89 149.245C882.72 149.345 882.265 148.09 882.265 147.195C882.24 145.49 881.94 143.77 882.83 141.995C884.095 139.605 880.2 138.45 880.285 133.215C880.38 129.295 877.06 129.96 875.365 126.965C874.415 125.25 873.525 124.305 873.615 122.235C873.98 110.335 871.03 102.495 869.59 100.6C868.455 99.13 867.475 98.585 868.555 97.9C874.755 93.825 876.18 90.03 876.18 90.03C879.48 82.325 882.46 75.305 886.555 72.18C887.385 71.58 889.5 69.98 890.815 69.38C894.63 67.57 896.68 66.49 897.755 65.44C899.535 63.755 900.93 60.175 899.225 58.04V58.04Z" fill="#222F3E"/>
</g>
<path d="M1099.77 103C1099.23 103.395 1098.69 103.783 1098.15 104.165C1094.02 107.09 1088.04 109.09 1080.25 109.09H1079.73C1071.95 109.09 1065.96 107.09 1061.83 104.165C1061.29 103.78 1060.75 103.391 1060.21 103C1060.66 102.665 1061.19 102.285 1061.83 101.83C1065.96 98.91 1071.95 96.905 1079.73 96.905H1080.25C1088.04 96.905 1094.03 98.91 1098.15 101.83C1098.8 102.28 1099.32 102.665 1099.77 103H1099.77ZM1140 78.905C1140 78.905 1136.45 76.2 1125.25 72.08C1115.41 68.475 1107.99 67.665 1107.99 67.665L1108.02 88.88C1108.02 91.87 1107.21 94.595 1104.93 97.705C1096.57 94.655 1088.66 92.78 1080.03 92.78C1071.39 92.78 1063.49 94.655 1055.13 97.705C1052.84 94.61 1052.03 91.865 1052.03 88.88L1052.06 67.665C1052.06 67.665 1044.59 68.465 1034.74 72.08C1023.54 76.21 1020 78.905 1020 78.905C1020.47 88.535 1028.9 97.095 1042.17 103.005C1028.88 108.9 1020.45 117.435 1020 127.09C1020 127.09 1023.54 129.79 1034.74 133.915C1044.58 137.52 1052.01 138.33 1052.01 138.33L1051.97 117.11C1051.97 114.125 1052.79 111.395 1055.07 108.29C1063.43 111.34 1071.33 113.205 1079.97 113.205C1088.61 113.205 1096.52 111.335 1104.87 108.29C1107.16 111.39 1107.97 114.125 1107.97 117.11L1107.94 138.33C1107.94 138.33 1115.36 137.53 1125.2 133.915C1136.41 129.785 1139.95 127.09 1139.95 127.09C1139.48 117.455 1131.05 108.89 1117.78 102.995C1131.06 97.085 1139.49 88.555 1139.95 78.895" fill="#222F3E"/>
<defs>
<clipPath id="clip0_401_485">
<rect width="120" height="120" fill="white" transform="translate(300 43)"/>
</clipPath>
<clipPath id="clip1_401_485">
<rect width="120" height="120" fill="white" transform="translate(780 43)"/>
</clipPath>
</defs>
</svg>
