<svg width="120" height="120" viewBox="0 0 120 120" fill="none" xmlns="http://www.w3.org/2000/svg">
<g clip-path="url(#clip0_402_492)">
<path d="M119.225 15.04C117.14 12.375 113.495 14.51 111.89 15.44C100.47 22.17 98.7847 34.02 94.8047 40.825C91.6747 46.275 86.5447 50.275 81.9047 50.585C78.4747 50.83 74.7547 50.165 71.0647 48.56C62.0297 44.655 57.1647 39.6 55.9797 38.71C53.5447 36.86 34.8297 18.635 19.5797 17.89C19.5797 17.89 17.7197 14.14 17.2547 14.075C16.1447 13.95 15.0047 16.33 14.1747 16.58C13.4247 16.845 12.1097 14.02 11.3497 14.145C10.5847 14.245 9.83973 17.075 8.34973 18.53C7.24973 19.595 5.91973 19.53 5.16473 20.845C4.90473 21.325 4.99473 22.17 4.69973 22.945C4.06473 24.545 1.94473 24.715 1.92473 26.43C1.92473 28.335 3.70973 28.7 5.26973 30.03C6.50973 31.09 6.59473 31.84 8.03973 32.335C9.32973 32.775 11.1997 31.4 12.8597 31.895C14.2447 32.3 15.5747 32.595 15.8697 34.01C16.1397 35.29 15.8697 37.3 14.1697 37.075C13.6097 37 11.1797 36.205 8.17973 36.525C4.55473 36.91 0.414728 38.07 0.00972771 42.075C-0.195272 44.31 2.57973 46.925 5.28473 46.405C7.13973 46.05 6.26473 43.875 7.27973 42.825C8.61473 41.475 16.1397 47.545 23.1397 47.545C26.1047 47.545 28.2947 46.795 30.4747 44.52C30.6747 44.375 30.9397 44.01 31.2497 43.97C31.5974 44.0602 31.9271 44.209 32.2247 44.41C37.8797 48.895 42.1447 57.91 62.8747 58.015C65.7847 58.05 69.1247 59.41 71.8547 61.9C74.2547 64.065 75.6747 67.525 77.0397 71.025C79.1297 76.29 82.8447 81.37 88.4997 87.04C88.7997 87.38 93.4497 90.94 93.7997 91.205C93.8597 91.255 94.2197 92.04 94.0647 92.48C93.9647 95.93 93.4497 105.83 100.89 106.245C102.72 106.345 102.265 105.09 102.265 104.195C102.24 102.49 101.94 100.77 102.83 98.995C104.095 96.605 100.2 95.45 100.285 90.215C100.38 86.295 97.0597 86.96 95.3647 83.965C94.4147 82.25 93.5247 81.305 93.6147 79.235C93.9797 67.335 91.0297 59.495 89.5897 57.6C88.4547 56.13 87.4747 55.585 88.5547 54.9C94.7547 50.825 96.1797 47.03 96.1797 47.03C99.4797 39.325 102.46 32.305 106.555 29.18C107.385 28.58 109.5 26.98 110.815 26.38C114.63 24.57 116.68 23.49 117.755 22.44C119.535 20.755 120.93 17.175 119.225 15.04V15.04Z" fill="#222F3E"/>
</g>
<defs>
<clipPath id="clip0_402_492">
<rect width="120" height="120" fill="white"/>
</clipPath>
</defs>
</svg>
