<svg width="120" height="120" viewBox="0 0 120 120" fill="none" xmlns="http://www.w3.org/2000/svg">
<path d="M120 39L32.21 76.38C24.93 79.46 18.815 81.005 13.87 81.005C8.27005 81.005 4.20505 79.045 1.68505 75.12C0.100046 72.6 -0.364954 69.405 0.285046 65.53C0.935046 61.655 2.66505 57.53 5.46505 53.14C7.80005 49.59 11.625 44.925 16.95 39.14C15.1439 41.9833 13.8194 45.1053 13.03 48.38C11.63 54.355 12.89 58.74 16.81 61.54C18.675 62.845 21.24 63.5 24.51 63.5C27.12 63.5 30.06 63.08 33.33 62.24L120 39Z" fill="#222F3E"/>
</svg>
