<svg width="120" height="120" viewBox="0 0 120 120" fill="none" xmlns="http://www.w3.org/2000/svg">
<g clip-path="url(#clip0_401_488)">
<path d="M59.68 89.76C59.68 86.54 62.265 83.96 65.49 83.96C68.71 83.96 71.29 86.54 71.29 89.76C71.2926 90.5226 71.1445 91.2783 70.854 91.9834C70.5635 92.6886 70.1365 93.3294 69.5974 93.8689C69.0584 94.4084 68.418 94.836 67.7131 95.127C67.0082 95.4181 66.2526 95.567 65.49 95.565C64.7269 95.5683 63.9708 95.4206 63.265 95.1304C62.5593 94.8402 61.9179 94.4133 61.3779 93.8742C60.8379 93.3351 60.4098 92.6944 60.1184 91.9892C59.827 91.284 59.678 90.5281 59.68 89.765V89.76ZM83.3 89.765C83.3 86.54 85.885 83.955 89.105 83.955C92.325 83.955 94.91 86.54 94.91 89.76C94.91 92.98 92.325 95.565 89.11 95.565C88.3469 95.5683 87.5908 95.4206 86.885 95.1304C86.1793 94.8402 85.5379 94.4133 84.9979 93.8742C84.4579 93.3351 84.0298 92.6944 83.7384 91.9892C83.447 91.284 83.298 90.5281 83.3 89.765V89.765ZM28.55 89.765C28.55 86.54 31.135 83.955 34.355 83.955C37.575 83.955 40.155 86.54 40.155 89.76C40.155 92.98 37.575 95.565 34.355 95.565C33.5924 95.5676 32.8367 95.4194 32.1316 95.129C31.4264 94.8385 30.7856 94.4114 30.2461 93.8724C29.7066 93.3334 29.279 92.693 28.9879 91.9881C28.6969 91.2831 28.548 90.5276 28.55 89.765V89.765ZM4.93 89.765C4.93 86.54 7.515 83.955 10.735 83.955C13.955 83.955 16.54 86.54 16.54 89.76C16.5426 90.5231 16.3943 91.2791 16.1035 91.9846C15.8127 92.6901 15.3852 93.3311 14.8456 93.8706C14.3061 94.4102 13.6651 94.8377 12.9596 95.1285C12.2541 95.4193 11.4981 95.5676 10.735 95.565C9.97278 95.567 9.21768 95.4183 8.5131 95.1275C7.80851 94.8367 7.16834 94.4096 6.62937 93.8706C6.09039 93.3316 5.66324 92.6915 5.37247 91.9869C5.08169 91.2823 4.93302 90.5272 4.935 89.765H4.93ZM52.685 79.505H47.635V99.82H52.685V79.505ZM16.5 99.82H21.55V79.505H16.5V81.135C14.7397 79.9099 12.6446 79.2569 10.5 79.265C4.69 79.265 0 83.955 0 89.765C0 95.605 4.69 100.26 10.5 100.26C12.725 100.26 14.79 99.585 16.5 98.39V99.82V99.82ZM94.87 99.82H99.92V79.505H94.87V81.135C93.1097 79.9099 91.0146 79.2569 88.87 79.265C83.06 79.265 78.37 83.955 78.37 89.765C78.3654 91.1449 78.6338 92.5122 79.1599 93.7879C79.686 95.0636 80.4594 96.2226 81.4354 97.1982C82.4114 98.1737 83.5708 98.9465 84.8467 99.472C86.1227 99.9975 87.4901 100.265 88.87 100.26C91.095 100.26 93.16 99.585 94.87 98.39V99.82V99.82ZM101.79 93.22C101.95 97.32 105.45 100.22 111.29 100.22C116.065 100.22 120 98.15 120 93.58C120 90.4 118.21 88.53 114.075 87.73L110.855 87.1C108.785 86.7 107.355 86.3 107.355 85.07C107.355 83.72 108.745 83.12 110.495 83.12C113.045 83.12 114.075 84.395 114.155 85.905H119.245C118.965 81.93 115.785 79.265 110.655 79.265C105.37 79.265 102.225 82.165 102.225 85.945C102.225 90.555 105.965 91.31 109.185 91.91L111.85 92.385C113.76 92.745 114.595 93.3 114.595 94.415C114.595 95.41 113.64 96.4 111.37 96.4C108.07 96.4 107 94.69 106.96 93.22H101.79V93.22ZM40.12 72.585V81.135C38.3597 79.9099 36.2646 79.2569 34.12 79.265C28.31 79.265 23.62 83.955 23.62 89.765C23.62 95.605 28.31 100.26 34.12 100.26C36.34 100.26 38.41 99.585 40.12 98.39V99.82H45.17V72.585H40.12V72.585ZM71.25 72.585V81.135C69.4897 79.9099 67.3946 79.2569 65.25 79.265C59.445 79.265 54.75 83.955 54.75 89.765C54.7454 91.1449 55.0138 92.5122 55.5399 93.7879C56.066 95.0636 56.8394 96.2226 57.8154 97.1982C58.7914 98.1737 59.9508 98.9465 61.2267 99.472C62.5027 99.9975 63.8701 100.265 65.25 100.26C67.475 100.26 69.54 99.585 71.25 98.39V99.82H76.3V72.585H71.25V72.585ZM13.12 66.585L16.54 72.585H40.12L30.775 56.44L13.125 66.58L13.12 66.585ZM52.685 77.635V72.585H71.25L51.45 38.31L33.755 48.45L47.635 72.585V77.635H52.685V77.635ZM78.77 72.585H102.385L71.85 19.74L54.195 29.92L78.77 72.585V72.585Z" fill="#222F3E"/>
</g>
<defs>
<clipPath id="clip0_401_488">
<rect width="120" height="120" fill="white"/>
</clipPath>
</defs>
</svg>
