<svg width="120" height="120" viewBox="0 0 120 120" fill="none" xmlns="http://www.w3.org/2000/svg">
<path d="M114.315 81.3625C114.315 80.7372 114.807 80.2279 115.411 80.2279C116.015 80.2279 116.507 80.7372 116.507 81.3625C116.507 81.9888 116.015 82.4986 115.411 82.4986C114.807 82.4986 114.315 81.9888 114.315 81.3625ZM116.239 81.3625C116.239 80.8318 115.87 80.4481 115.411 80.4481C114.953 80.4481 114.583 80.8318 114.583 81.3625C114.583 81.8951 114.953 82.2779 115.411 82.2779C115.87 82.2779 116.239 81.8951 116.239 81.3625ZM114.99 80.7159H115.451C115.748 80.7159 115.909 80.8221 115.909 81.0928C115.909 81.3121 115.787 81.4197 115.585 81.4382L115.918 82.0019H115.681L115.361 81.4474H115.221V82.0019H114.99V80.7159ZM115.221 81.266H115.424C115.56 81.266 115.679 81.2466 115.679 81.0739C115.679 80.923 115.545 80.8978 115.427 80.8978H115.221V81.266H115.221Z" fill="#222F3E"/>
<path d="M110.893 62.6809C110.893 60.8045 109.217 58.6968 106.53 59.5462C103.33 60.5561 102.524 65.7142 102.631 69.4519C102.749 73.5645 104.081 78.0973 106.256 78.3995C107.715 78.5936 108.581 77.6534 108.589 76.854L108.58 70.6719C108.58 69.8045 107.963 68.9828 106.974 68.9362V66.4923L113.428 66.4937L113.421 82.2381L107.797 81.2713C102.082 80.6722 98.9014 76.5561 98.0353 71.2002C96.7784 63.457 100.763 57.6979 107.463 56.7447C107.463 56.7447 111.902 56.0117 113.347 55.773L113.349 62.6605L110.893 62.6808" fill="#222F3E"/>
<path d="M28.9107 59.1741C30.8516 59.5161 33.7466 61.7398 33.7063 65.5905C33.6469 71.0872 29.8601 72.5327 27.4965 72.5187L23.5646 72.4983L23.5852 76.0589C23.5852 76.4412 23.9049 77.0645 25.0781 77.3527L25.0884 79.3484C22.6306 79.6477 20.3199 79.9223 17.8154 80.2764L17.8219 77.9877C19.0559 77.816 19.276 76.8215 19.276 76.4669V66.0009C19.2666 65.5051 18.7306 65.1166 17.8397 65.0423L17.8463 62.613L23.5716 63.4638V69.9025L26.879 69.9224C28.5573 69.8759 29.6246 68.0276 29.6518 66.1794C29.693 63.3503 28.1224 62.025 26.3261 61.7296L10.7077 59.7999C10.4656 59.7727 10.064 59.8338 9.77934 60.0977C9.34163 60.5042 9.36644 61.3221 9.5771 61.6641C9.5771 61.6641 13.4233 69.5833 15.2561 73.2187C16.2289 75.113 16.476 77.6205 15.1372 79.2984C13.5029 81.3494 10.6716 81.0385 4.21693 82.2376V75.83L6.5506 75.845C6.53093 76.7706 7.0515 78.1963 8.19142 78.7304C8.94137 79.0821 10.1028 78.9661 10.6651 78.3961C12.1547 76.8792 10.6716 75.1532 9.30418 72.3596L4.61157 62.5111C4.4496 62.1502 3.47962 59.8008 4.98187 57.989C6.24069 56.475 7.94377 56.4241 8.9292 56.5643L28.9107 59.1741" fill="#222F3E"/>
<path d="M97.8181 60.0924C96.6066 60.2466 96.2298 61.1625 96.2298 61.9726V79.6734L91.2829 79.0845C89.4684 74.8632 86.1039 66.2958 86.1039 66.2958L86.1105 74.3591C86.1105 75.6781 86.5931 76.383 87.4831 76.6071V78.6872C83.2989 78.2797 78.9653 77.9227 74.6416 77.6602L74.6636 75.682C75.716 75.6223 76.2515 74.7986 76.2515 73.6213L76.2614 63.5536C76.2614 62.9889 75.6542 62.254 74.673 62.3282L74.651 60.3393L80.2391 59.9299L80.2359 73.7368C80.2144 74.3989 80.4423 75.5869 81.8514 75.6995C82.6702 75.7722 83.4141 75.195 83.4141 74.4688L83.4 63.1257C83.4 62.431 82.8205 61.8349 81.9118 61.8121L81.931 59.7892L87.9428 59.2192L93.5048 72.4314L93.5001 62.3578C93.5001 61.6229 92.9379 60.8259 91.908 60.805L91.9295 58.8112C91.9295 58.8112 96.4059 58.2476 97.8192 58.1006V60.0924" fill="#222F3E"/>
<path fill-rule="evenodd" clip-rule="evenodd" d="M74.1191 68.4744C74.3761 74.5119 70.5711 77.2178 67.4444 77.2013L60.1785 77.1548L60.1761 65.5187C60.1761 64.0066 59.737 63.0355 58.6243 63.0728L58.5957 60.8516L67.7197 60.8889C70.984 60.9098 73.9174 63.7311 74.1191 68.4744H74.1191ZM69.8633 69.4383C69.8633 72.6734 68.4608 74.7603 66.7656 74.7487L64.3421 74.7501V63.343L66.3967 63.3416C68.465 63.2693 69.8633 65.8559 69.8633 69.4383" fill="#222F3E"/>
<path fill-rule="evenodd" clip-rule="evenodd" d="M46.3513 74.1685C46.503 74.6366 46.9884 74.9951 47.4819 74.9194C48.3039 74.7991 48.5553 74.2398 48.5361 73.5354L48.5295 63.929C48.5272 63.083 47.5933 62.6634 46.9702 62.6809L46.9936 60.51L52.7732 60.7482L52.776 74.7302C53.3288 74.7079 54.5853 74.771 54.5853 74.771C55.7379 74.6885 56.4204 73.6819 56.4335 72.1699L58.8037 72.1844C58.8037 73.9162 58.8089 75.4152 58.8037 77.1504C55.5684 77.0995 44.2133 77.5516 40.8385 77.8727L40.845 75.6131C41.749 75.6393 42.0987 75.2493 41.9372 74.7302L41.7106 73.5961L36.2765 73.5932L35.857 74.6259C35.497 75.6636 36.4361 76.1618 36.9941 76.0836V78.1536L30.5938 78.7609L30.6209 76.3388C31.5665 76.2088 32.4317 75.3856 32.7528 74.4586L36.5771 63.5603C36.9942 62.7269 36.4994 62.0895 35.5565 61.994L35.5785 59.7475L41.5838 60.2035L46.3513 74.1685V74.1685ZM40.9017 71.0231L37.217 70.9887L39.1205 65.5415L40.9017 71.0231V71.0231Z" fill="#222F3E"/>
<path d="M62.2707 42.0637L62.824 39.0226C59.5578 39.613 58.1796 39.5368 57.2031 40.5473C56.4091 41.371 56.3183 42.607 56.6348 43.5398C56.9545 44.4887 58.321 48.7949 58.3767 48.9671C58.4909 49.4813 58.4404 49.9038 57.9896 50.2982C57.6647 50.5815 57.0828 50.6363 56.749 50.4651C56.2312 50.2002 56.1067 49.5589 56.1933 49.1025L55.0562 49.2756L54.4902 52.2668C57.7578 51.6788 59.1346 51.7526 60.1088 50.745C60.9065 49.9169 60.9969 48.6824 60.6781 47.7495C60.3597 46.8021 59.2114 43.0416 59.0546 42.4697C58.8963 41.9007 58.7821 41.4622 59.3266 40.9911C59.6505 40.7117 60.2305 40.6545 60.5671 40.8257C61.083 41.0886 61.2188 41.7891 61.1312 42.2456L62.2707 42.0637" fill="#222F3E"/>
<path d="M47.876 42.5391V42.5696L47.9069 42.5818C60.0082 34.6717 68.9707 37.4616 69.1214 42.2771C69.2305 45.8465 67.0911 48.9477 62.0315 51.5687L62.0193 51.6046L62.0488 51.6221C69.216 49.1112 72.419 45.6195 72.412 41.7328C72.4036 33.6332 57.0037 33.1587 47.876 42.5391Z" fill="#222F3E"/>
<path d="M69.6678 48.7416L69.6303 48.7314C57.5154 56.7418 48.5393 53.9316 48.3862 49.1165C48.2748 45.5467 50.4648 42.4319 55.5286 39.8085L55.5192 39.8138L55.5361 39.7764L55.5052 39.759C48.3422 42.2718 45.092 45.7747 45.0957 49.6613C45.106 57.761 60.6477 58.118 69.6678 48.7741V48.7416" fill="#222F3E"/>
</svg>
