<svg width="120" height="120" viewBox="0 0 120 120" fill="none" xmlns="http://www.w3.org/2000/svg">
<path d="M79.77 60C79.2345 60.3946 78.6945 60.7829 78.15 61.165C74.02 64.09 68.035 66.09 60.25 66.09H59.73C51.95 66.09 45.955 64.09 41.83 61.165C41.2879 60.7796 40.7479 60.3913 40.21 60C40.66 59.665 41.19 59.285 41.83 58.83C45.955 55.91 51.95 53.905 59.73 53.905H60.25C68.035 53.905 74.03 55.91 78.15 58.83C78.795 59.28 79.325 59.665 79.775 60H79.77ZM120 35.905C120 35.905 116.455 33.2 105.25 29.08C95.41 25.475 87.99 24.665 87.99 24.665L88.02 45.88C88.02 48.87 87.21 51.595 84.93 54.705C76.57 51.655 68.66 49.78 60.025 49.78C51.385 49.78 43.485 51.655 35.125 54.705C32.84 51.61 32.025 48.865 32.025 45.88L32.06 24.665C32.06 24.665 24.59 25.465 14.745 29.08C3.545 33.21 0 35.905 0 35.905C0.465 45.535 8.9 54.095 22.175 60.005C8.885 65.9 0.45 74.435 0 84.09C0 84.09 3.545 86.79 14.745 90.915C24.585 94.52 32.01 95.33 32.01 95.33L31.975 74.11C31.975 71.125 32.795 68.395 35.07 65.29C43.43 68.34 51.33 70.205 59.97 70.205C68.605 70.205 76.515 68.335 84.87 65.29C87.155 68.39 87.97 71.125 87.97 74.11L87.94 95.33C87.94 95.33 95.36 94.53 105.2 90.915C116.405 86.785 119.95 84.09 119.95 84.09C119.485 74.455 111.05 65.89 97.775 59.995C111.06 54.085 119.49 45.555 119.95 35.895" fill="#222F3E"/>
</svg>
