<svg width="120" height="120" viewBox="0 0 120 120" fill="none" xmlns="http://www.w3.org/2000/svg">
<path d="M67.75 10.97V10.595C67.75 8.845 68.315 7.28 69.44 5.905C70.565 4.53 72 3.845 73.75 3.845C75.5 3.845 77.065 4.405 78.44 5.53C79.815 6.655 80.565 8.155 80.69 10.03C80.815 11.905 80.25 13.47 79 14.72C77.75 15.97 76.25 16.595 74.5 16.595L73.375 16.97L73.75 17.53L73.375 19.595L72.625 25.595C72.875 25.845 73 26.095 73 26.345L72.25 30.095C72 30.595 71.75 30.97 71.5 31.22L71.125 32.72C70.4705 35.3713 69.72 37.9981 68.875 40.595V41.345C68.625 42.595 68.44 43.595 68.315 44.345C68.19 45.095 67.75 46.345 67 48.095C66.5 49.095 66.5 50.72 67 52.97L67.375 53.345C67.375 54.095 67.69 54.97 68.315 55.97C68.94 56.97 69.25 57.845 69.25 58.595C69.5 63.595 69.125 67.845 68.125 71.345L68.875 73.595C71.875 75.095 72.75 76.72 71.5 78.47L73.375 79.22C76.375 80.72 78.5 82.03 79.75 83.155C81 84.28 82.25 85.47 83.5 86.72C84.5 86.97 85.25 87.345 85.75 87.845L86.875 88.22C92.125 91.72 97.375 95.97 102.625 100.97L104.125 102.095V102.47L103.75 103.22L104.875 103.97H105.25C106 104.47 106.5 104.72 106.75 104.72H107.125C107.375 104.72 107.625 104.595 107.875 104.345L108.625 103.97C109.125 103.47 109.625 103.095 110.125 102.845H111.625C111.875 102.845 111.875 102.97 111.625 103.22L110.125 103.97L108.25 106.22H110.875L113.5 106.595C114.25 106.345 114.875 106.095 115.375 105.845L117.25 104.72C118 104.47 118.75 104.72 119.5 105.47H119.875C120.125 105.72 120 106.095 119.5 106.595L115 110.72C113.75 111.72 112.625 112.345 111.625 112.595L106.75 115.97C106.5 116.22 106.25 116.22 106 115.97L104.875 114.47L104.125 112.97L103.185 111.655L102.06 110.155L101.125 109.03L100.375 108.095L98.875 106.97C98.375 106.97 97.875 106.845 97.375 106.595L92.5 102.845C91.75 102.845 90.875 102.47 89.875 101.72C86.125 98.47 83.625 96.47 82.375 95.72L80.125 94.22L75.625 93.47C74.125 93.22 72.125 92.47 69.625 91.22L66.625 89.72C64.625 88.72 63.25 88.22 62.5 88.22L61 87.47C60 87.22 59.25 86.97 58.75 86.72L58 85.97C57.5 85.97 57 86.095 56.5 86.345L49 90.095L39.625 94.22C37.125 96.22 34.75 97.845 32.5 99.095L28.375 100.97L22 105.47C21.5 105.97 21 105.97 20.5 105.47L19.75 106.22C19 106.47 18.5 106.595 18.25 106.595L16.75 107.345V108.095H16L15.25 109.22C14.75 110.22 14.25 110.78 13.75 110.905C13.25 111.03 12.94 111.22 12.815 111.47C12.7199 111.675 12.5934 111.864 12.44 112.03L11.69 112.78L10.565 113.53L8.875 113.345L6.625 113.72L5.125 114.095C3.875 114.345 2.875 114.155 2.125 113.53C1.375 112.905 0.75 111.97 0.25 110.72C-0.25 109.97 0 109.345 1 108.845L1.375 108.47C1.625 108.22 2 108.095 2.5 108.095H4.75L7.75 106.97L9.25 106.595C9.25 106.095 9.375 105.72 9.625 105.47C9.875 105.22 10.25 105.095 10.75 105.095V104.72C10.509 104.256 10.3806 103.742 10.375 103.22C10.125 102.72 10.06 102.345 10.19 102.095C10.315 101.845 10.44 101.72 10.565 101.72H10.75L11.125 102.845C11.375 104.095 11.75 104.47 12.25 103.97L12.625 103.22C12.875 102.72 13.25 102.47 13.75 102.47L14.5 103.22L15.25 102.47L14.875 102.095C14.875 101.845 15 101.72 15.25 101.72L16.75 100.22C18 98.72 19.5 97.345 21.25 96.095C24.75 93.345 28.5 91.22 32.5 89.72C33.75 88.47 35.125 87.845 36.625 87.845C37.625 86.095 39.125 84.22 41.125 82.22C42.875 80.97 44.125 80.095 44.875 79.595C45.375 78.595 46 78.095 46.75 78.095H47.125L47.875 77.345C48.375 77.095 48.75 76.845 49 76.595V74.72C49 73.47 49.125 72.47 49.375 71.72C49.625 70.97 50.25 70.595 51.25 70.595L52.75 69.095C52.25 68.095 52 66.97 52 65.72H51.625C51.125 64.97 50.875 64.22 50.875 63.47C50.125 62.22 49.625 61.22 49.375 60.47H48.25C48 61.22 47.375 61.72 46.375 61.97L46 62.72C45 64.47 44.125 65.78 43.375 66.655C42.625 67.53 41.25 68.595 39.25 69.845C38 71.095 37.125 72.47 36.625 73.97C36.375 74.72 36.375 75.47 36.625 76.22L36.25 76.97H36.625C36.625 77.47 36.75 77.72 37 77.72H37.375C37.875 77.97 38.125 78.28 38.125 78.655C38.125 79.03 37.75 79.155 37 79.03C36.374 78.9612 35.7851 78.699 35.315 78.28C34.94 77.905 34.625 77.72 34.375 77.72L33.25 78.845C32.75 79.595 32.25 79.905 31.75 79.78C31.25 79.655 31.125 79.47 31.375 79.22L31.75 78.845C32 78.345 32 78.095 31.75 78.095L28.75 78.845C28.5 79.095 28.19 79.095 27.815 78.845C27.44 78.595 27.5 78.345 28 78.095L29.875 77.345C29.875 77.095 29.75 76.97 29.5 76.97C28.5 77.47 27.5 77.595 26.5 77.345L24.625 76.97L24.25 76.595C24.25 76.345 24.375 76.22 24.625 76.22C25.625 76.47 26.875 76.345 28.375 75.845L31 74.72L34 71.345L34.375 70.595C35.375 68.595 36.44 66.78 37.565 65.155C38.5553 63.6782 39.7544 62.3528 41.125 61.22L41.5 59.72C42 58.72 42.5 57.845 43 57.095C43.5 56.345 44.125 55.345 44.875 54.095L46 52.595C47 51.095 48.125 50.345 49.375 50.345L50.5 49.22C50.75 48.97 50.875 48.595 50.875 48.095L51.625 47.345L51.25 46.97C49.75 45.72 49 44.595 49 43.595C48.75 41.845 49.315 40.345 50.69 39.095C52.065 37.845 53.44 37.28 54.815 37.405C56.19 37.53 57.25 37.97 58 38.72L58.75 39.47C59 39.47 59.125 39.595 59.125 39.845L60.625 40.595V41.72C61.125 42.22 61.375 42.595 61.375 42.845C61.875 42.095 62.625 41.22 63.625 40.22L65.5 34.22C65.5 33.22 65.75 32.22 66.25 31.22L67 30.095V29.345L68.125 24.845H68.875L70 20.345C70.2513 19.488 70.2513 18.577 70 17.72L68.5 13.97L67.75 10.97V10.97Z" fill="#222F3E"/>
</svg>
